<svg width="269" height="95" viewBox="0 0 269 95" fill="none" xmlns="http://www.w3.org/2000/svg">
<g clip-path="url(#clip0_5_805)" filter="url(#filter0_d_5_805)">
<path d="M244.096 0.000152909H24.7858C23.9863 0.000152909 23.1965 0.000152909 22.3992 0.00450074C21.7318 0.00884856 21.0697 0.021479 20.3959 0.0321094C18.932 0.0492873 17.4716 0.17771 16.0274 0.416262C14.5851 0.660006 13.1881 1.11953 11.8834 1.7793C10.5804 2.44466 9.38975 3.30921 8.35473 4.34161C7.31428 5.3711 6.44699 6.56106 5.7862 7.86572C5.12358 9.16778 4.66412 10.5631 4.42369 12.0034C4.18097 13.4419 4.05035 14.8969 4.03303 16.3555C4.0128 17.0221 4.01066 17.6908 4 18.3574V68.6058C4.01066 69.2808 4.0128 69.9347 4.03303 70.6099C4.05036 72.0685 4.18097 73.5235 4.42369 74.9619C4.66346 76.403 5.12294 77.7991 5.7862 79.1017C6.44669 80.4021 7.31411 81.5872 8.35473 82.611C9.38583 83.648 10.5772 84.5131 11.8834 85.1734C13.188 85.8349 14.585 86.2972 16.0274 86.5447C17.4719 86.7814 18.9321 86.9098 20.3959 86.9291C21.0697 86.9438 21.7318 86.9523 22.3992 86.9523C23.1965 86.9567 23.9864 86.9567 24.7858 86.9567H244.096C244.879 86.9567 245.675 86.9567 246.459 86.9523C247.123 86.9523 247.804 86.9438 248.468 86.9291C249.929 86.9109 251.387 86.7824 252.828 86.5447C254.275 86.2955 255.677 85.8333 256.988 85.1734C258.293 84.5128 259.484 83.6476 260.514 82.611C261.552 81.5832 262.421 80.399 263.09 79.1017C263.748 77.7982 264.203 76.4022 264.439 74.9619C264.683 73.5233 264.818 72.0686 264.844 70.6099C264.853 69.9347 264.853 69.2808 264.853 68.6058C264.87 67.816 264.87 67.0306 264.87 66.228V20.7309C264.87 19.9348 264.87 19.145 264.853 18.3574C264.853 17.6908 264.853 17.0221 264.844 16.3555C264.818 14.8967 264.683 13.442 264.439 12.0033C264.202 10.5638 263.747 9.16864 263.09 7.86563C261.744 5.25058 259.61 3.12195 256.988 1.77911C255.677 1.12095 254.275 0.661545 252.828 0.416066C251.387 0.176463 249.929 0.0479959 248.468 0.0318051C247.804 0.0211964 247.123 0.00845726 246.459 0.00421813C245.675 -0.0001297 244.879 -0.0001297 244.096 -0.0001297V0.000152909Z" fill="#A6A6A6"/>
<path d="M22.4098 85.0544C21.7456 85.0544 21.0975 85.0459 20.4385 85.0311C19.0733 85.0134 17.7113 84.8948 16.3637 84.6765C15.1071 84.4607 13.8898 84.0593 12.752 83.4854C11.6246 82.9164 10.5963 82.1702 9.7065 81.2754C8.80385 80.3913 8.05234 79.3658 7.48177 78.2396C6.90492 77.1061 6.5057 75.8911 6.29803 74.637C6.07375 73.2894 5.95242 71.9268 5.93505 70.5609C5.92123 70.1024 5.90314 68.5759 5.90314 68.5759V18.3573C5.90314 18.3573 5.92241 16.8542 5.93516 16.4126C5.95179 15.0489 6.07242 13.6884 6.29602 12.3429C6.50408 11.0853 6.90361 9.86685 7.48077 8.72963C8.04924 7.60423 8.79657 6.57796 9.69379 5.69061C10.59 4.79483 11.6216 4.04479 12.7509 3.46785C13.8861 2.89586 15.1011 2.49725 16.3552 2.28537C17.7072 2.06486 19.0739 1.94565 20.4438 1.92872L22.4109 1.90218H246.448L248.439 1.92978C249.796 1.94587 251.15 2.06402 252.49 2.28324C253.757 2.49777 254.984 2.89917 256.132 3.47422C258.395 4.63693 260.236 6.47644 261.397 8.73494C261.965 9.8643 262.358 11.0728 262.564 12.3195C262.79 13.6761 262.917 15.0473 262.943 16.4222C262.949 17.0378 262.949 17.6991 262.949 18.3573C262.966 19.1725 262.966 19.9484 262.966 20.7307V66.2278C262.966 67.0176 262.966 67.7883 262.949 68.5652C262.949 69.2722 262.949 69.9198 262.941 70.5863C262.915 71.9367 262.791 73.2834 262.568 74.6157C262.365 75.8788 261.968 77.1033 261.391 78.2461C260.816 79.3601 260.069 80.3767 259.177 81.2585C258.286 82.158 257.256 82.9086 256.126 83.4813C254.981 84.0596 253.755 84.4625 252.49 84.6765C251.142 84.896 249.78 85.0145 248.415 85.0311C247.776 85.0459 247.108 85.0544 246.459 85.0544L244.095 85.0587L22.4098 85.0544Z" fill="black"/>
<path d="M57.9966 44.1319C58.02 42.3174 58.5034 40.5384 59.4016 38.9602C60.2998 37.382 61.5837 36.0561 63.1339 35.1057C62.1491 33.7032 60.85 32.549 59.3396 31.7347C57.8292 30.9205 56.1493 30.4686 54.4331 30.4151C50.7724 30.0319 47.2234 32.5995 45.358 32.5995C43.4564 32.5995 40.5842 30.4531 37.4914 30.5166C35.4908 30.581 33.5411 31.1612 31.8323 32.2004C30.1234 33.2397 28.7136 34.7026 27.7403 36.4467C23.5242 43.7259 26.669 54.4238 30.7078 60.3078C32.7284 63.189 35.09 66.4074 38.1801 66.2932C41.2039 66.1682 42.3332 64.3704 45.9832 64.3704C49.5993 64.3704 50.6589 66.2932 53.8116 66.2207C57.0563 66.1681 59.1006 63.3267 61.0504 60.4182C62.5022 58.3652 63.6194 56.0963 64.3606 53.6953C62.4755 52.9003 60.8668 51.5694 59.7351 49.8688C58.6034 48.1682 57.9988 46.1729 57.9966 44.1319V44.1319Z" fill="white"/>
<path d="M52.0415 26.5454C53.8107 24.4276 54.6823 21.7054 54.4712 18.9571C51.7683 19.2402 49.2717 20.5284 47.4786 22.565C46.602 23.5599 45.9305 24.7174 45.5027 25.9712C45.0749 27.2251 44.8991 28.5507 44.9853 29.8723C46.3372 29.8862 47.6747 29.594 48.8969 29.0177C50.1192 28.4415 51.1944 27.5961 52.0415 26.5454Z" fill="white"/>
<path d="M96.2196 58.9992H85.9007L83.4227 66.2959H79.052L88.8259 39.3002H93.3669L103.141 66.2959H98.6955L96.2196 58.9992ZM86.9695 55.6322H95.1489L91.1167 43.7903H91.0039L86.9695 55.6322Z" fill="white"/>
<path d="M124.249 56.4559C124.249 62.5722 120.966 66.5018 116.012 66.5018C114.757 66.5672 113.509 66.279 112.411 65.67C111.313 65.061 110.409 64.1559 109.802 63.0583H109.708V72.807H105.657V46.6139H109.579V49.8875H109.653C110.287 48.7952 111.207 47.8948 112.313 47.282C113.42 46.6693 114.673 46.3673 115.938 46.4079C120.947 46.408 124.249 50.3567 124.249 56.4559ZM120.085 56.4559C120.085 52.4712 118.02 49.8514 114.869 49.8514C111.774 49.8514 109.691 52.5263 109.691 56.4559C109.691 60.4216 111.774 63.0775 114.869 63.0775C118.02 63.0775 120.085 60.4768 120.085 56.4559Z" fill="white"/>
<path d="M145.972 56.4559C145.972 62.5722 142.69 66.5018 137.736 66.5018C136.481 66.5672 135.233 66.279 134.134 65.67C133.036 65.061 132.132 64.1559 131.526 63.0583H131.432V72.807H127.38V46.6139H131.302V49.8875H131.376C132.011 48.7952 132.93 47.8948 134.037 47.282C135.143 46.6693 136.396 46.3673 137.661 46.408C142.67 46.408 145.972 50.3567 145.972 56.4559ZM141.808 56.4559C141.808 52.4712 139.743 49.8514 136.592 49.8514C133.497 49.8514 131.415 52.5263 131.415 56.4559C131.415 60.4216 133.497 63.0775 136.592 63.0775C139.743 63.0775 141.808 60.4768 141.808 56.4559H141.808Z" fill="white"/>
<path d="M160.33 58.7742C160.63 61.4513 163.238 63.209 166.802 63.209C170.217 63.209 172.673 61.4512 172.673 59.0373C172.673 56.942 171.192 55.6873 167.683 54.8275L164.175 53.9847C159.204 52.7873 156.896 50.4691 156.896 46.7072C156.896 42.0494 160.967 38.8501 166.747 38.8501C172.467 38.8501 176.388 42.0494 176.52 46.7072H172.431C172.186 44.0131 169.953 42.387 166.689 42.387C163.425 42.387 161.192 44.0323 161.192 46.427C161.192 48.3355 162.619 49.4585 166.108 50.3183L169.09 51.0486C174.645 52.3584 176.953 54.5833 176.953 58.532C176.953 63.5825 172.918 66.7457 166.502 66.7457C160.498 66.7457 156.445 63.6568 156.183 58.774L160.33 58.7742Z" fill="white"/>
<path d="M185.696 41.9561V46.6139H189.449V49.8132H185.696V60.6636C185.696 62.3493 186.448 63.1348 188.097 63.1348C188.543 63.127 188.988 63.0958 189.43 63.0413V66.2215C188.688 66.3597 187.934 66.4223 187.18 66.4083C183.184 66.4083 181.626 64.9116 181.626 61.0945V49.8132H178.756V46.6139H181.625V41.9561H185.696Z" fill="white"/>
<path d="M191.623 56.4559C191.623 50.2633 195.281 46.3719 200.984 46.3719C206.706 46.3719 210.347 50.2632 210.347 56.4559C210.347 62.6656 206.726 66.54 200.984 66.54C195.244 66.54 191.623 62.6656 191.623 56.4559ZM206.219 56.4559C206.219 52.2079 204.267 49.7007 200.984 49.7007C197.701 49.7007 195.751 52.227 195.751 56.4559C195.751 60.721 197.701 63.2091 200.984 63.2091C204.267 63.2091 206.219 60.721 206.219 56.4559H206.219Z" fill="white"/>
<path d="M213.687 46.6139H217.551V49.9639H217.645C217.906 48.9176 218.521 47.993 219.386 47.3454C220.25 46.6978 221.312 46.3668 222.392 46.4079C222.859 46.4063 223.325 46.4569 223.78 46.5587V50.3375C223.191 50.1579 222.576 50.0755 221.96 50.0934C221.372 50.0696 220.785 50.1731 220.24 50.3967C219.695 50.6204 219.206 50.959 218.805 51.3892C218.404 51.8194 218.101 52.331 217.917 52.889C217.733 53.447 217.672 54.0381 217.738 54.6217V66.2958H213.687L213.687 46.6139Z" fill="white"/>
<path d="M242.46 60.515C241.915 64.088 238.425 66.54 233.961 66.54C228.219 66.54 224.655 62.7038 224.655 56.5493C224.655 50.3758 228.238 46.3719 233.791 46.3719C239.251 46.3719 242.685 50.1125 242.685 56.0802V57.4643H228.745V57.7085C228.681 58.4328 228.772 59.1625 229.012 59.8491C229.252 60.5357 229.636 61.1635 230.138 61.6908C230.64 62.2181 231.249 62.6328 231.924 62.9074C232.6 63.1819 233.326 63.3101 234.055 63.2834C235.012 63.3728 235.973 63.1517 236.794 62.6529C237.615 62.1541 238.253 61.4043 238.613 60.515L242.46 60.515ZM228.764 54.6408H238.632C238.668 53.9895 238.569 53.3377 238.341 52.7264C238.113 52.1151 237.76 51.5574 237.306 51.0883C236.851 50.6193 236.304 50.249 235.699 50.0007C235.094 49.7524 234.445 49.6315 233.791 49.6455C233.131 49.6415 232.477 49.7679 231.866 50.0174C231.256 50.2668 230.701 50.6344 230.234 51.0988C229.766 51.5632 229.396 52.1153 229.144 52.7232C228.891 53.3312 228.762 53.9829 228.764 54.6408V54.6408Z" fill="white"/>
<path d="M86.4618 18.9804C87.3111 18.9197 88.1634 19.0476 88.9572 19.3551C89.751 19.6625 90.4664 20.1418 91.0519 20.7584C91.6375 21.375 92.0785 22.1135 92.3431 22.9206C92.6078 23.7277 92.6895 24.5833 92.5824 25.4257C92.5824 29.5698 90.3364 31.9518 86.4618 31.9518H81.7632V18.9804H86.4618ZM83.7836 30.1174H86.2361C86.843 30.1536 87.4504 30.0543 88.014 29.8269C88.5776 29.5995 89.0833 29.2496 89.4942 28.8027C89.9052 28.3558 90.211 27.8232 90.3894 27.2436C90.5679 26.664 90.6145 26.052 90.5259 25.4522C90.6081 24.8547 90.5567 24.2465 90.3755 23.6712C90.1943 23.0958 89.8878 22.5675 89.4778 22.1242C89.0678 21.6809 88.5646 21.3335 88.0041 21.1069C87.4437 20.8803 86.8399 20.7801 86.2361 20.8135H83.7836V30.1174Z" fill="white"/>
<path d="M94.8645 27.0529C94.8028 26.4096 94.8766 25.7605 95.0812 25.1473C95.2858 24.5341 95.6166 23.9704 96.0525 23.4921C96.4884 23.0139 97.0197 22.6318 97.6123 22.3703C98.205 22.1089 98.8458 21.9738 99.4939 21.9738C100.142 21.9738 100.783 22.1089 101.375 22.3703C101.968 22.6318 102.499 23.0139 102.935 23.4921C103.371 23.9704 103.702 24.5341 103.907 25.1473C104.111 25.7605 104.185 26.4096 104.123 27.0529C104.186 27.6969 104.113 28.3468 103.909 28.961C103.705 29.5752 103.375 30.14 102.939 30.6192C102.503 31.0983 101.971 31.4812 101.378 31.7433C100.784 32.0053 100.143 32.1407 99.4939 32.1407C98.8451 32.1407 98.2034 32.0053 97.6102 31.7433C97.017 31.4812 96.4853 31.0983 96.0493 30.6192C95.6133 30.14 95.2826 29.5752 95.0786 28.961C94.8746 28.3468 94.8017 27.6969 94.8645 27.0529V27.0529ZM102.131 27.0529C102.131 24.931 101.175 23.6901 99.4971 23.6901C97.8131 23.6901 96.8658 24.931 96.8658 27.0529C96.8658 29.1918 97.8132 30.4231 99.4971 30.4231C101.175 30.4231 102.131 29.1833 102.131 27.0529H102.131Z" fill="white"/>
<path d="M116.431 31.9516H114.421L112.392 24.742H112.239L110.218 31.9516H108.228L105.522 22.1627H107.487L109.246 29.6322H109.39L111.409 22.1627H113.267L115.285 29.6322H115.439L117.189 22.1627H119.126L116.431 31.9516Z" fill="white"/>
<path d="M121.402 22.1627H123.267V23.7177H123.411C123.657 23.1592 124.071 22.691 124.596 22.3784C125.121 22.0657 125.731 21.9243 126.341 21.9737C126.818 21.9379 127.298 22.0097 127.744 22.1838C128.19 22.3579 128.591 22.6299 128.917 22.9796C129.244 23.3292 129.487 23.7476 129.629 24.2038C129.771 24.6599 129.809 25.1421 129.738 25.6146V31.9515H127.801V26.0997C127.801 24.5266 127.116 23.7443 125.683 23.7443C125.359 23.7292 125.035 23.7842 124.734 23.9056C124.433 24.027 124.162 24.2118 123.939 24.4474C123.717 24.683 123.548 24.9639 123.444 25.2707C123.34 25.5775 123.305 25.903 123.339 26.2249V31.9516H121.402L121.402 22.1627Z" fill="white"/>
<path d="M132.825 18.3413H134.763V31.9516H132.825V18.3413Z" fill="white"/>
<path d="M137.456 27.0529C137.394 26.4096 137.468 25.7605 137.673 25.1473C137.877 24.534 138.208 23.9702 138.644 23.492C139.08 23.0138 139.611 22.6317 140.204 22.3702C140.797 22.1087 141.438 21.9736 142.086 21.9736C142.734 21.9736 143.375 22.1087 143.967 22.3702C144.56 22.6317 145.091 23.0138 145.527 23.492C145.963 23.9702 146.294 24.534 146.499 25.1473C146.703 25.7605 146.777 26.4096 146.715 27.0529C146.778 27.6969 146.705 28.3469 146.501 28.9611C146.297 29.5752 145.966 30.14 145.53 30.6192C145.094 31.0983 144.563 31.4812 143.969 31.7432C143.376 32.0053 142.734 32.1406 142.086 32.1406C141.437 32.1406 140.795 32.0053 140.202 31.7432C139.609 31.4812 139.077 31.0983 138.641 30.6192C138.205 30.14 137.874 29.5752 137.67 28.9611C137.466 28.3469 137.393 27.6969 137.456 27.0529V27.0529ZM144.722 27.0529C144.722 24.931 143.766 23.6902 142.088 23.6902C140.404 23.6902 139.457 24.931 139.457 27.0529C139.457 29.1918 140.404 30.4231 142.088 30.4231C143.766 30.4231 144.722 29.1833 144.722 27.0529H144.722Z" fill="white"/>
<path d="M148.755 29.1833C148.755 27.4212 150.071 26.4054 152.406 26.261L155.065 26.1082V25.2633C155.065 24.2294 154.38 23.6456 153.055 23.6456C151.974 23.6456 151.225 24.0415 151.01 24.7336H149.134C149.332 23.0522 150.918 21.9737 153.145 21.9737C155.606 21.9737 156.994 23.1955 156.994 25.2633V31.9516H155.129V30.576H154.976C154.665 31.0694 154.228 31.4717 153.71 31.7417C153.192 32.0118 152.611 32.1399 152.027 32.1129C151.615 32.1557 151.199 32.1118 150.805 31.9842C150.41 31.8566 150.048 31.6481 149.739 31.3721C149.431 31.096 149.184 30.7587 149.015 30.3817C148.845 30.0047 148.757 29.5965 148.755 29.1833V29.1833ZM155.065 28.3468V27.5285L152.668 27.6813C151.316 27.7715 150.703 28.2301 150.703 29.0931C150.703 29.9741 151.469 30.4868 152.523 30.4868C152.832 30.518 153.144 30.4869 153.441 30.3954C153.737 30.3039 154.012 30.1538 154.249 29.9542C154.486 29.7545 154.681 29.5093 154.821 29.2332C154.961 28.9571 155.044 28.6556 155.065 28.3468V28.3468Z" fill="white"/>
<path d="M159.54 27.0529C159.54 23.9598 161.135 22.0003 163.615 22.0003C164.228 21.9721 164.837 22.1186 165.37 22.4227C165.903 22.7268 166.339 23.176 166.625 23.7176H166.77V18.3413H168.707V31.9516H166.851V30.405H166.698C166.389 30.943 165.938 31.3866 165.395 31.6876C164.852 31.9887 164.236 32.1358 163.615 32.1129C161.118 32.113 159.54 30.1535 159.54 27.0529ZM161.541 27.0529C161.541 29.1292 162.523 30.3785 164.164 30.3785C165.797 30.3785 166.806 29.1111 166.806 27.0614C166.806 25.0212 165.786 23.7358 164.164 23.7358C162.533 23.7358 161.541 24.9936 161.541 27.0529H161.541Z" fill="white"/>
<path d="M176.723 27.0529C176.661 26.4096 176.735 25.7605 176.939 25.1473C177.144 24.5341 177.475 23.9704 177.911 23.4921C178.346 23.0139 178.878 22.6318 179.47 22.3703C180.063 22.1089 180.704 21.9738 181.352 21.9738C182 21.9738 182.641 22.1089 183.234 22.3703C183.826 22.6318 184.357 23.0139 184.793 23.4921C185.229 23.9704 185.56 24.5341 185.765 25.1473C185.969 25.7605 186.043 26.4096 185.981 27.0529C186.044 27.6969 185.971 28.3468 185.767 28.961C185.563 29.5752 185.233 30.14 184.797 30.6192C184.361 31.0983 183.829 31.4812 183.236 31.7433C182.642 32.0053 182.001 32.1407 181.352 32.1407C180.703 32.1407 180.062 32.0053 179.468 31.7433C178.875 31.4812 178.343 31.0983 177.907 30.6192C177.471 30.14 177.141 29.5752 176.937 28.961C176.733 28.3468 176.66 27.6969 176.723 27.0529V27.0529ZM183.989 27.0529C183.989 24.931 183.033 23.6901 181.355 23.6901C179.671 23.6901 178.724 24.931 178.724 27.0529C178.724 29.1918 179.671 30.4231 181.355 30.4231C183.033 30.4231 183.989 29.1833 183.989 27.0529Z" fill="white"/>
<path d="M188.581 22.1627H190.446V23.7177H190.591C190.836 23.1592 191.25 22.691 191.775 22.3784C192.301 22.0657 192.91 21.9243 193.52 21.9737C193.998 21.9379 194.477 22.0097 194.923 22.1838C195.369 22.3579 195.77 22.6299 196.097 22.9796C196.423 23.3292 196.666 23.7476 196.808 24.2038C196.95 24.6599 196.988 25.1421 196.918 25.6146V31.9515H194.98V26.0997C194.98 24.5266 194.295 23.7443 192.862 23.7443C192.538 23.7292 192.214 23.7842 191.913 23.9056C191.612 24.027 191.341 24.2118 191.118 24.4474C190.896 24.683 190.727 24.9639 190.623 25.2707C190.52 25.5775 190.484 25.903 190.518 26.2249V31.9516H188.581V22.1627Z" fill="white"/>
<path d="M207.865 19.7255V22.2072H209.991V23.8345H207.865V28.868C207.865 29.8934 208.288 30.3424 209.253 30.3424C209.5 30.3416 209.746 30.3268 209.991 30.2978V31.907C209.643 31.9691 209.291 32.0021 208.938 32.0058C206.783 32.0058 205.925 31.25 205.925 29.3627V23.8344H204.367V22.2072H205.925V19.7255H207.865Z" fill="white"/>
<path d="M212.638 18.3413H214.558V23.7358H214.711C214.969 23.172 215.394 22.7012 215.93 22.3874C216.466 22.0736 217.085 21.9321 217.704 21.9822C218.18 21.9564 218.655 22.0355 219.096 22.2139C219.536 22.3922 219.933 22.6654 220.255 23.014C220.578 23.3625 220.82 23.7779 220.964 24.2303C221.107 24.6828 221.148 25.1613 221.085 25.6316V31.9516H219.146V26.1081C219.146 24.5446 218.416 23.7527 217.047 23.7527C216.714 23.7255 216.379 23.7711 216.065 23.8865C215.752 24.0018 215.468 24.184 215.232 24.4204C214.997 24.6568 214.816 24.9416 214.702 25.255C214.589 25.5683 214.545 25.9026 214.575 26.2345V31.9516H212.638L212.638 18.3413Z" fill="white"/>
<path d="M232.381 29.3085C232.118 30.2032 231.548 30.9771 230.77 31.4948C229.993 32.0125 229.057 32.2411 228.128 32.1406C227.481 32.1576 226.838 32.0341 226.244 31.7786C225.65 31.5231 225.119 31.1417 224.687 30.661C224.256 30.1802 223.935 29.6116 223.746 28.9946C223.557 28.3776 223.505 27.727 223.593 27.0879C223.507 26.4469 223.56 25.7948 223.748 25.176C223.937 24.5571 224.257 23.9859 224.686 23.501C225.115 23.016 225.644 22.6287 226.236 22.3652C226.828 22.1017 227.471 21.9682 228.119 21.9737C230.85 21.9737 232.498 23.8346 232.498 26.9085V27.5826H225.567V27.6909C225.536 28.0501 225.581 28.4117 225.699 28.7524C225.817 29.0932 226.006 29.4056 226.252 29.6696C226.498 29.9337 226.797 30.1435 227.129 30.2857C227.461 30.4278 227.819 30.4992 228.181 30.4952C228.644 30.5507 229.114 30.4675 229.53 30.2562C229.945 30.0448 230.289 29.715 230.516 29.3085L232.381 29.3085ZM225.566 26.1538H230.525C230.549 25.8253 230.504 25.4953 230.393 25.185C230.282 24.8748 230.107 24.5911 229.88 24.3523C229.652 24.1135 229.377 23.9248 229.072 23.7983C228.767 23.6718 228.439 23.6104 228.108 23.618C227.773 23.6138 227.441 23.6765 227.13 23.8025C226.82 23.9284 226.538 24.1151 226.301 24.3514C226.064 24.5877 225.877 24.869 225.751 25.1785C225.625 25.4881 225.562 25.8197 225.567 26.1538H225.566Z" fill="white"/>
</g>
<defs>
<filter id="filter0_d_5_805" x="0" y="0" width="268.87" height="94.9565" filterUnits="userSpaceOnUse" color-interpolation-filters="sRGB">
<feFlood flood-opacity="0" result="BackgroundImageFix"/>
<feColorMatrix in="SourceAlpha" type="matrix" values="0 0 0 0 0 0 0 0 0 0 0 0 0 0 0 0 0 0 127 0" result="hardAlpha"/>
<feOffset dy="4"/>
<feGaussianBlur stdDeviation="2"/>
<feComposite in2="hardAlpha" operator="out"/>
<feColorMatrix type="matrix" values="0 0 0 0 0 0 0 0 0 0 0 0 0 0 0 0 0 0 0.25 0"/>
<feBlend mode="normal" in2="BackgroundImageFix" result="effect1_dropShadow_5_805"/>
<feBlend mode="normal" in="SourceGraphic" in2="effect1_dropShadow_5_805" result="shape"/>
</filter>
<clipPath id="clip0_5_805">
<rect width="260.87" height="86.9565" fill="white" transform="translate(4)"/>
</clipPath>
</defs>
</svg>
