<svg width="302" height="95" viewBox="0 0 302 95" fill="none" xmlns="http://www.w3.org/2000/svg">
<g clip-path="url(#clip0_5_806)" filter="url(#filter0_d_5_806)">
<path d="M286.609 0H14.8696C8.86647 0 4 4.86647 4 10.8696V76.087C4 82.09 8.86647 86.9565 14.8696 86.9565H286.609C292.612 86.9565 297.478 82.09 297.478 76.087V10.8696C297.478 4.86647 292.612 0 286.609 0Z" fill="black"/>
<path d="M286.609 1.73913C289.03 1.73913 291.353 2.70108 293.065 4.41337C294.777 6.12566 295.739 8.44802 295.739 10.8696V76.087C295.739 78.5085 294.777 80.8309 293.065 82.5431C291.353 84.2554 289.03 85.2174 286.609 85.2174H14.8696C12.448 85.2174 10.1257 84.2554 8.41337 82.5431C6.70108 80.8309 5.73913 78.5085 5.73913 76.087V10.8696C5.73913 8.44802 6.70108 6.12566 8.41337 4.41337C10.1257 2.70108 12.448 1.73913 14.8696 1.73913H286.609ZM286.609 0H14.8696C11.9868 0 9.22206 1.14518 7.18362 3.18362C5.14518 5.22206 4 7.98678 4 10.8696V76.087C4 78.9697 5.14518 81.7345 7.18362 83.7729C9.22206 85.8113 11.9868 86.9565 14.8696 86.9565H286.609C289.491 86.9565 292.256 85.8113 294.295 83.7729C296.333 81.7345 297.478 78.9697 297.478 76.087V10.8696C297.478 7.98678 296.333 5.22206 294.295 3.18362C292.256 1.14518 289.491 0 286.609 0Z" fill="#A6A6A6"/>
<path d="M107.087 22.2608C107.123 23.0581 106.997 23.8543 106.716 24.6015C106.436 25.3487 106.008 26.0315 105.456 26.6087C104.839 27.2463 104.094 27.7463 103.269 28.0759C102.445 28.4056 101.561 28.5575 100.674 28.5217C99.7818 28.5416 98.8952 28.3782 98.0688 28.0417C97.2424 27.7051 96.4939 27.2026 95.8695 26.5652C94.6028 25.2695 93.8936 23.5294 93.8936 21.7174C93.8936 19.9053 94.6028 18.1653 95.8695 16.8695C96.838 15.9232 98.0646 15.2842 99.3951 15.0328C100.726 14.7814 102.101 14.9288 103.348 15.4565C104.132 15.7787 104.831 16.2771 105.391 16.913L104.239 18.0652C103.807 17.5451 103.26 17.1329 102.641 16.8612C102.023 16.5895 101.349 16.4658 100.674 16.5C99.8218 16.5059 98.984 16.7204 98.234 17.1248C97.4839 17.5292 96.8443 18.1112 96.3711 18.8198C95.8978 19.5285 95.6054 20.3423 95.5193 21.1901C95.4332 22.0378 95.556 22.8938 95.8771 23.6831C96.1982 24.4725 96.7077 25.1712 97.3612 25.7181C98.0146 26.2651 98.7921 26.6436 99.6257 26.8207C100.459 26.9978 101.323 26.968 102.143 26.734C102.962 26.5 103.712 26.0688 104.326 25.4782C104.99 24.7502 105.375 23.8107 105.413 22.8261H100.674V21.2608H107C107.049 21.5921 107.078 21.926 107.087 22.2608Z" fill="white" stroke="white" stroke-width="0.411304" stroke-miterlimit="10"/>
<path d="M117.043 16.8261H111.174V20.9565H116.522V22.5217H111.174V26.6522H117.043V28.2609H109.478V15.2174H117.043V16.8261Z" fill="white" stroke="white" stroke-width="0.411304" stroke-miterlimit="10"/>
<path d="M124.174 28.2609H122.5V16.8261H118.848V15.2174H127.913V16.8261H124.174V28.2609Z" fill="white" stroke="white" stroke-width="0.411304" stroke-miterlimit="10"/>
<path d="M134.304 28.2609V15.2174H135.978V28.2609H134.304Z" fill="white" stroke="white" stroke-width="0.411304" stroke-miterlimit="10"/>
<path d="M143.413 28.2609H141.739V16.8261H138.087V15.2174H147.043V16.8261H143.413V28.2609Z" fill="white" stroke="white" stroke-width="0.411304" stroke-miterlimit="10"/>
<path d="M164.022 26.5652C163.394 27.1936 162.648 27.6921 161.828 28.0322C161.007 28.3723 160.127 28.5474 159.239 28.5474C158.351 28.5474 157.471 28.3723 156.651 28.0322C155.83 27.6921 155.084 27.1936 154.456 26.5652C153.228 25.2588 152.543 23.5328 152.543 21.7392C152.543 19.9455 153.228 18.2195 154.456 16.9131C155.071 16.267 155.814 15.7571 156.638 15.4163C157.462 15.0755 158.348 14.9115 159.239 14.9348C160.129 14.9207 161.013 15.089 161.835 15.4292C162.658 15.7694 163.402 16.2744 164.022 16.9131C164.647 17.5489 165.138 18.3036 165.467 19.1325C165.795 19.9614 165.954 20.8477 165.935 21.7392C165.963 22.6317 165.808 23.5206 165.479 24.3507C165.15 25.1809 164.654 25.9346 164.022 26.5652ZM155.696 25.4783C156.159 25.9476 156.71 26.3202 157.319 26.5745C157.927 26.8289 158.58 26.9599 159.239 26.9599C159.898 26.9599 160.551 26.8289 161.159 26.5745C161.768 26.3202 162.319 25.9476 162.783 25.4783C163.721 24.459 164.241 23.1244 164.241 21.7392C164.241 20.3539 163.721 19.0193 162.783 18C162.319 17.5307 161.768 17.1581 161.159 16.9038C160.551 16.6494 159.898 16.5185 159.239 16.5185C158.58 16.5185 157.927 16.6494 157.319 16.9038C156.71 17.1581 156.159 17.5307 155.696 18C154.758 19.0193 154.237 20.3539 154.237 21.7392C154.237 23.1244 154.758 24.459 155.696 25.4783Z" fill="white" stroke="white" stroke-width="0.411304" stroke-miterlimit="10"/>
<path d="M168.304 28.2609V15.2174H170.326L176.674 25.3696V22.8478V15.2174H178.348V28.2609H176.609L169.978 17.6304V20.1304V28.2609H168.304Z" fill="white" stroke="white" stroke-width="0.411304" stroke-miterlimit="10"/>
<path d="M152.13 47.2826C150.299 47.2869 148.51 47.8343 146.989 48.8554C145.469 49.8766 144.285 51.3257 143.588 53.0196C142.891 54.7134 142.712 56.5759 143.074 58.3715C143.435 60.1671 144.321 61.8151 145.619 63.1072C146.917 64.3993 148.57 65.2775 150.367 65.6306C152.164 65.9837 154.026 65.7959 155.716 65.091C157.407 64.3861 158.85 63.1958 159.864 61.6705C160.878 60.1451 161.417 58.3534 161.413 56.5217C161.431 55.2999 161.202 54.0869 160.742 52.9551C160.281 51.8233 159.597 50.7958 158.731 49.9337C157.865 49.0717 156.834 48.3927 155.7 47.9372C154.566 47.4818 153.352 47.2592 152.13 47.2826ZM152.13 62.1304C151.008 62.209 149.887 61.9479 148.915 61.3813C147.943 60.8146 147.163 59.9686 146.678 58.9531C146.193 57.9377 146.025 56.7997 146.195 55.6873C146.365 54.5748 146.866 53.5393 147.633 52.7153C148.399 51.8913 149.396 51.317 150.493 51.0669C151.59 50.8169 152.737 50.9027 153.785 51.3132C154.833 51.7238 155.733 52.44 156.369 53.3689C157.004 54.2978 157.345 55.3964 157.348 56.5217C157.383 57.2348 157.275 57.9477 157.03 58.6183C156.785 59.2889 156.408 59.9037 155.922 60.4265C155.436 60.9492 154.85 61.3693 154.199 61.6619C153.547 61.9546 152.844 62.1139 152.13 62.1304ZM131.87 47.2826C130.038 47.2869 128.249 47.8343 126.728 48.8554C125.208 49.8766 124.024 51.3257 123.327 53.0196C122.63 54.7134 122.451 56.5759 122.813 58.3715C123.174 60.1671 124.06 61.8151 125.358 63.1072C126.656 64.3993 128.309 65.2775 130.106 65.6306C131.903 65.9837 133.765 65.7959 135.455 65.091C137.146 64.3861 138.59 63.1958 139.604 61.6705C140.618 60.1451 141.156 58.3534 141.152 56.5217C141.17 55.2999 140.942 54.0869 140.481 52.9551C140.02 51.8233 139.336 50.7958 138.47 49.9337C137.604 49.0717 136.573 48.3927 135.439 47.9372C134.305 47.4818 133.091 47.2592 131.87 47.2826ZM131.87 62.1304C130.747 62.209 129.627 61.9479 128.654 61.3813C127.682 60.8146 126.903 59.9686 126.417 58.9531C125.932 57.9377 125.764 56.7997 125.934 55.6873C126.104 54.5748 126.605 53.5393 127.372 52.7153C128.138 51.8913 129.135 51.317 130.232 51.0669C131.329 50.8169 132.476 50.9027 133.524 51.3132C134.572 51.7238 135.472 52.44 136.108 53.3689C136.743 54.2978 137.084 55.3964 137.087 56.5217C137.122 57.2348 137.014 57.9477 136.769 58.6183C136.524 59.2889 136.147 59.9037 135.661 60.4265C135.175 60.9492 134.589 61.3693 133.938 61.6619C133.287 61.9546 132.583 62.1139 131.87 62.1304ZM107.783 50.1304V54.0435H117.174C117.027 55.8865 116.261 57.6256 115 58.9783C114.058 59.9381 112.925 60.6894 111.674 61.1837C110.423 61.6781 109.083 61.9043 107.739 61.8478C104.972 61.8478 102.318 60.7485 100.361 58.7916C98.4037 56.8347 97.3044 54.1805 97.3044 51.4131C97.3044 48.6456 98.4037 45.9914 100.361 44.0345C102.318 42.0776 104.972 40.9783 107.739 40.9783C110.392 40.9388 112.954 41.9464 114.87 43.7826L117.63 41.0217C116.335 39.7402 114.796 38.7302 113.105 38.0508C111.414 37.3714 109.605 37.0364 107.783 37.0652C105.85 36.99 103.922 37.3057 102.114 37.9934C100.307 38.6811 98.6565 39.7267 97.2625 41.0674C95.8686 42.4082 94.7597 44.0165 94.0022 45.7961C93.2447 47.5757 92.8542 49.4898 92.8542 51.4239C92.8542 53.358 93.2447 55.2722 94.0022 57.0517C94.7597 58.8313 95.8686 60.4397 97.2625 61.7804C98.6565 63.1212 100.307 64.1667 102.114 64.8544C103.922 65.5421 105.85 65.8578 107.783 65.7826C109.642 65.8569 111.497 65.537 113.224 64.8438C114.951 64.1507 116.512 63.1 117.804 61.7609C120.087 59.2531 121.304 55.9548 121.196 52.5652C121.203 51.7494 121.138 50.9345 121 50.1304H107.783ZM206.283 53.1739C205.716 51.506 204.655 50.0495 203.242 48.9975C201.829 47.9455 200.13 47.3474 198.37 47.2826C197.18 47.2803 196.003 47.5219 194.911 47.9925C193.819 48.4631 192.835 49.1526 192.02 50.0186C191.205 50.8845 190.577 51.9084 190.173 53.0269C189.769 54.1455 189.6 55.3349 189.674 56.5217C189.655 58.5062 190.279 60.4434 191.452 62.0441C192.626 63.6447 194.285 64.8228 196.183 65.4025C198.081 65.9822 200.116 65.9323 201.983 65.2602C203.85 64.5882 205.45 63.3301 206.543 61.6739L203.391 59.5C202.921 60.2832 202.255 60.93 201.458 61.3761C200.661 61.8223 199.761 62.0524 198.848 62.0435C197.906 62.0824 196.974 61.8354 196.174 61.3349C195.375 60.8344 194.746 60.1038 194.37 59.2391L206.739 54.1304L206.283 53.1739ZM193.674 56.2609C193.63 55.5856 193.721 54.9083 193.942 54.2687C194.163 53.6291 194.509 53.04 194.961 52.5359C195.412 52.0318 195.96 51.6229 196.571 51.333C197.183 51.0432 197.846 50.8782 198.522 50.8478C199.222 50.8051 199.92 50.97 200.527 51.3219C201.134 51.6738 201.624 52.1971 201.935 52.8261L193.674 56.2609ZM183.63 65.2174H187.696V38.0435H183.63V65.2174ZM176.978 49.3478H176.826C176.219 48.6562 175.469 48.1039 174.629 47.7287C173.788 47.3535 172.877 47.1643 171.957 47.1739C169.581 47.2891 167.341 48.314 165.7 50.0361C164.059 51.7581 163.144 54.0454 163.144 56.4239C163.144 58.8024 164.059 61.0897 165.7 62.8118C167.341 64.5339 169.581 65.5587 171.957 65.6739C172.878 65.6924 173.793 65.5071 174.634 65.1313C175.476 64.7556 176.225 64.1985 176.826 63.5H176.978V64.8261C176.978 68.3696 175.087 70.2609 172.043 70.2609C171.027 70.2385 170.04 69.9146 169.208 69.3301C168.375 68.7456 167.736 67.927 167.37 66.9783L163.848 68.4348C164.499 70.0701 165.631 71.4693 167.094 72.4475C168.558 73.4257 170.283 73.9367 172.043 73.9131C176.804 73.9131 180.739 71.1087 180.739 64.2826V47.8261H176.978V49.3478ZM172.304 62.1304C170.88 62.0416 169.543 61.4132 168.566 60.3732C167.589 59.3332 167.045 57.9597 167.045 56.5326C167.045 55.1055 167.589 53.7321 168.566 52.692C169.543 51.652 170.88 51.0236 172.304 50.9348C173.001 50.9648 173.684 51.1346 174.313 51.434C174.942 51.7334 175.505 52.1563 175.967 52.6776C176.429 53.1988 176.782 53.8078 177.005 54.4682C177.227 55.1286 177.314 55.827 177.261 56.5217C177.32 57.2189 177.237 57.9208 177.018 58.5851C176.798 59.2494 176.446 59.8622 175.983 60.3865C175.519 60.9108 174.954 61.3357 174.322 61.6354C173.69 61.9352 173.004 62.1036 172.304 62.1304ZM225.326 38.0435H215.587V65.2174H219.652V54.913H225.326C226.485 54.9963 227.648 54.8399 228.744 54.4538C229.839 54.0676 230.843 53.4599 231.693 52.6685C232.544 51.8771 233.222 50.919 233.686 49.854C234.149 48.789 234.389 47.6398 234.389 46.4783C234.389 45.3167 234.149 44.1676 233.686 43.1025C233.222 42.0375 232.544 41.0795 231.693 40.2881C230.843 39.4967 229.839 38.889 228.744 38.5028C227.648 38.1166 226.485 37.9602 225.326 38.0435ZM225.326 51.087H219.652V41.8261H225.413C226.024 41.8261 226.629 41.9464 227.193 42.1802C227.758 42.414 228.271 42.7567 228.703 43.1887C229.135 43.6207 229.477 44.1335 229.711 44.698C229.945 45.2624 230.065 45.8673 230.065 46.4783C230.065 47.0892 229.945 47.6942 229.711 48.2586C229.477 48.823 229.135 49.3359 228.703 49.7678C228.271 50.1998 227.758 50.5425 227.193 50.7763C226.629 51.0101 226.024 51.1304 225.413 51.1304L225.326 51.087ZM250.413 47.1957C248.933 47.1044 247.458 47.449 246.171 48.187C244.885 48.925 243.843 50.0239 243.174 51.3478L246.761 52.8478C247.123 52.1944 247.667 51.6598 248.327 51.3088C248.987 50.9577 249.734 50.8052 250.478 50.8696C250.994 50.8093 251.517 50.8524 252.016 50.9964C252.516 51.1403 252.981 51.3823 253.386 51.7081C253.791 52.0339 254.126 52.437 254.374 52.894C254.621 53.3509 254.775 53.8525 254.826 54.3696V54.6304C253.519 53.9433 252.064 53.5851 250.587 53.587C246.717 53.587 242.761 55.7609 242.761 59.7174C242.799 60.5584 243.006 61.3831 243.369 62.1425C243.732 62.9019 244.245 63.5806 244.875 64.1383C245.506 64.6959 246.242 65.1212 247.04 65.3887C247.839 65.6562 248.682 65.7606 249.522 65.6957C250.542 65.7521 251.559 65.5362 252.468 65.0701C253.377 64.6041 254.146 63.9046 254.696 63.0435H254.826V65.2174H258.739V54.7609C258.739 50 255.13 47.2391 250.5 47.2391L250.413 47.1957ZM249.913 62.087C248.587 62.087 246.739 61.413 246.739 59.7826C246.739 57.6087 249.044 56.8696 251.087 56.8696C252.378 56.8377 253.655 57.153 254.783 57.7826C254.646 58.9632 254.086 60.0543 253.207 60.8537C252.328 61.6532 251.188 62.1068 250 62.1304L249.913 62.087ZM273 47.8261L268.348 59.6087H268.217L263.391 47.8261H259.043L266.283 64.3044L262.152 73.4565H266.391L277.522 47.8261H273ZM236.478 65.2174H240.522V38.0435H236.478V65.2174Z" fill="white"/>
<path d="M26.6956 16.3913C25.9792 17.2383 25.6137 18.3271 25.6739 19.4348V67.5217C25.5999 68.6313 25.9671 69.7251 26.6956 70.5652L26.8478 70.7391L53.7826 43.8043V43.1522L26.8478 16.2391L26.6956 16.3913Z" fill="url(#paint0_linear_5_806)"/>
<path d="M62.6956 52.7826L53.7826 43.8044V43.1522L62.6956 34.1739L62.8913 34.3044L73.5652 40.3478C76.6087 42.0652 76.6087 44.8913 73.5652 46.6304L62.9348 52.6739L62.6956 52.7826Z" fill="url(#paint1_linear_5_806)"/>
<path d="M62.9565 52.6522L53.7826 43.4783L26.6957 70.5652C27.31 71.112 28.0963 71.4266 28.9182 71.4544C29.7401 71.4822 30.5459 71.2214 31.1957 70.7174L62.9565 52.6522Z" fill="url(#paint2_linear_5_806)"/>
<path d="M62.9565 34.3044L31.1957 16.2609C30.5501 15.7498 29.745 15.4827 28.9219 15.5066C28.0989 15.5305 27.3106 15.8437 26.6957 16.3913L53.7826 43.4783L62.9565 34.3044Z" fill="url(#paint3_linear_5_806)"/>
<path opacity="0.2" d="M62.6957 52.4565L31.1957 70.3913C30.5695 70.8639 29.8063 71.1196 29.0218 71.1196C28.2372 71.1196 27.4741 70.8639 26.8479 70.3913L26.6957 70.5435L26.8479 70.7174C27.4741 71.19 28.2372 71.4457 29.0218 71.4457C29.8063 71.4457 30.5695 71.19 31.1957 70.7174L62.9565 52.6522L62.6957 52.4565Z" fill="black"/>
<path opacity="0.12" d="M26.6956 70.2609C25.9974 69.3986 25.6552 68.302 25.7391 67.1956V67.5217C25.6652 68.6313 26.0324 69.7251 26.7609 70.5652L26.913 70.413L26.6956 70.2609Z" fill="black"/>
<path opacity="0.12" d="M73.5652 46.3043L62.6956 52.4565L62.8913 52.6522L73.5652 46.6087C74.1953 46.3423 74.7418 45.9109 75.1474 45.36C75.5529 44.8091 75.8024 44.159 75.8696 43.4783C75.7337 44.0969 75.4543 44.6749 75.054 45.1658C74.6538 45.6567 74.1438 46.0467 73.5652 46.3043Z" fill="black"/>
<path opacity="0.25" d="M31.1957 16.5652L73.5653 40.6522C74.1439 40.9098 74.6538 41.2998 75.0541 41.7907C75.4544 42.2816 75.7337 42.8596 75.8696 43.4782C75.8024 42.7975 75.553 42.1474 75.1474 41.5965C74.7419 41.0456 74.1953 40.6142 73.5653 40.3478L31.1957 16.2609C28.174 14.5217 25.674 15.9565 25.674 19.4348V19.7609C25.7392 16.2826 28.174 14.8478 31.1957 16.5652Z" fill="white"/>
</g>
<defs>
<filter id="filter0_d_5_806" x="0" y="0" width="301.478" height="94.9565" filterUnits="userSpaceOnUse" color-interpolation-filters="sRGB">
<feFlood flood-opacity="0" result="BackgroundImageFix"/>
<feColorMatrix in="SourceAlpha" type="matrix" values="0 0 0 0 0 0 0 0 0 0 0 0 0 0 0 0 0 0 127 0" result="hardAlpha"/>
<feOffset dy="4"/>
<feGaussianBlur stdDeviation="2"/>
<feComposite in2="hardAlpha" operator="out"/>
<feColorMatrix type="matrix" values="0 0 0 0 0 0 0 0 0 0 0 0 0 0 0 0 0 0 0.25 0"/>
<feBlend mode="normal" in2="BackgroundImageFix" result="effect1_dropShadow_5_806"/>
<feBlend mode="normal" in="SourceGraphic" in2="effect1_dropShadow_5_806" result="shape"/>
</filter>
<linearGradient id="paint0_linear_5_806" x1="51.3913" y1="18.9348" x2="14.913" y2="55.4131" gradientUnits="userSpaceOnUse">
<stop stop-color="#00A0FF"/>
<stop offset="0.01" stop-color="#00A1FF"/>
<stop offset="0.26" stop-color="#00BEFF"/>
<stop offset="0.51" stop-color="#00D2FF"/>
<stop offset="0.76" stop-color="#00DFFF"/>
<stop offset="1" stop-color="#00E3FF"/>
</linearGradient>
<linearGradient id="paint1_linear_5_806" x1="77.5435" y1="43.4783" x2="24.9565" y2="43.4783" gradientUnits="userSpaceOnUse">
<stop stop-color="#FFE000"/>
<stop offset="0.41" stop-color="#FFBD00"/>
<stop offset="0.78" stop-color="#FFA500"/>
<stop offset="1" stop-color="#FF9C00"/>
</linearGradient>
<linearGradient id="paint2_linear_5_806" x1="57.9783" y1="48.4783" x2="8.50002" y2="97.9348" gradientUnits="userSpaceOnUse">
<stop stop-color="#FF3A44"/>
<stop offset="1" stop-color="#C31162"/>
</linearGradient>
<linearGradient id="paint3_linear_5_806" x1="19.8696" y1="0.391315" x2="41.9565" y2="22.4783" gradientUnits="userSpaceOnUse">
<stop stop-color="#32A071"/>
<stop offset="0.07" stop-color="#2DA771"/>
<stop offset="0.48" stop-color="#15CF74"/>
<stop offset="0.8" stop-color="#06E775"/>
<stop offset="1" stop-color="#00F076"/>
</linearGradient>
<clipPath id="clip0_5_806">
<rect width="293.478" height="86.9565" fill="white" transform="translate(4)"/>
</clipPath>
</defs>
</svg>
